<?xml version="1.0" encoding="UTF-8"?>
<!DOCTYPE svg PUBLIC "-//W3C//DTD SVG 1.1//EN" "http://www.w3.org/Graphics/SVG/1.1/DTD/svg11.dtd">
<svg xmlns="http://www.w3.org/2000/svg" version="1.1" width="512px" height="512px" style="shape-rendering:geometricPrecision; text-rendering:geometricPrecision; image-rendering:optimizeQuality; fill-rule:evenodd; clip-rule:evenodd" xmlns:xlink="http://www.w3.org/1999/xlink">
<g><path style="opacity:0.999" fill="#f2f3f4" d="M 232.5,-0.5 C 243.167,-0.5 253.833,-0.5 264.5,-0.5C 282.638,4.4505 297.472,14.4505 309,29.5C 322.719,49.6054 333.219,71.2721 340.5,94.5C 340.5,201.833 340.5,309.167 340.5,416.5C 333.241,439.687 322.741,461.353 309,481.5C 297.472,496.55 282.638,506.55 264.5,511.5C 253.833,511.5 243.167,511.5 232.5,511.5C 211.706,508.885 191.373,504.218 171.5,497.5C 171.5,336.167 171.5,174.833 171.5,13.5C 191.373,6.78166 211.706,2.11499 232.5,-0.5 Z"/></g>
<g><path style="opacity:0.977" fill="#e4e4e4" d="M 264.5,-0.5 C 269.167,-0.5 273.833,-0.5 278.5,-0.5C 299.504,2.23657 320.171,6.90324 340.5,13.5C 340.5,40.5 340.5,67.5 340.5,94.5C 333.219,71.2721 322.719,49.6054 309,29.5C 297.472,14.4505 282.638,4.4505 264.5,-0.5 Z"/></g>
<g><path style="opacity:0.994" fill="#359846" d="M 171.5,13.5 C 171.5,174.833 171.5,336.167 171.5,497.5C 86.7416,465.905 31.9082,406.572 7,319.5C 3.72272,305.493 1.22272,291.493 -0.5,277.5C -0.5,262.833 -0.5,248.167 -0.5,233.5C 10.2932,142.577 55.2932,74.4102 134.5,29C 146.395,22.7172 158.728,17.5505 171.5,13.5 Z"/></g>
<g><path style="opacity:0.993" fill="#e63026" d="M 341.5,13.5 C 426.721,46.5552 481.221,107.222 505,195.5C 507.73,208.217 509.897,220.884 511.5,233.5C 511.5,248.167 511.5,262.833 511.5,277.5C 500.707,368.423 455.707,436.59 376.5,482C 365.043,487.731 353.376,492.897 341.5,497.5C 341.333,468.165 341.5,438.831 342,409.5C 358.937,343.872 364.937,277.206 360,209.5C 357.81,172.5 351.81,136.167 342,100.5C 341.5,71.5019 341.333,42.5019 341.5,13.5 Z"/></g>
<g><path style="opacity:1" fill="#ee504f" d="M 340.5,13.5 C 340.833,13.5 341.167,13.5 341.5,13.5C 341.333,42.5019 341.5,71.5019 342,100.5C 351.81,136.167 357.81,172.5 360,209.5C 364.937,277.206 358.937,343.872 342,409.5C 341.5,438.831 341.333,468.165 341.5,497.5C 341.167,497.5 340.833,497.5 340.5,497.5C 340.5,470.5 340.5,443.5 340.5,416.5C 340.5,309.167 340.5,201.833 340.5,94.5C 340.5,67.5 340.5,40.5 340.5,13.5 Z"/></g>
<g><path style="opacity:0.977" fill="#e4e4e4" d="M 340.5,416.5 C 340.5,443.5 340.5,470.5 340.5,497.5C 320.171,504.097 299.504,508.763 278.5,511.5C 273.833,511.5 269.167,511.5 264.5,511.5C 282.638,506.55 297.472,496.55 309,481.5C 322.741,461.353 333.241,439.687 340.5,416.5 Z"/></g>
</svg>
